<svg width="1440" height="79" viewBox="0 0 1440 79" fill="none" xmlns="http://www.w3.org/2000/svg">
<path d="M0 0H1440V79H0V0Z" fill="#42CE9F"/>
<path d="M0 0H1440V79H0V0Z" fill="url(#paint0_linear)" fill-opacity="0.2"/>
<path d="M516.472 40.632V59H511.04V21.928H516.472V38.504H533.44V21.928H538.872V59H533.44V40.632H516.472ZM564.954 21.256C569.808 21.256 573.821 22.8613 576.994 26.072C580.168 29.2453 581.754 33.6693 581.754 39.344C581.754 43.0027 581.12 46.2133 579.85 48.976C578.581 51.7013 576.92 53.8107 574.866 55.304C570.872 58.216 566.466 59.672 561.65 59.672C556.834 59.672 552.84 58.0667 549.666 54.856C546.53 51.608 544.962 47.1467 544.962 41.472C544.962 38.5227 545.373 35.872 546.194 33.52C547.053 31.1307 548.154 29.1893 549.498 27.696C550.88 26.2027 552.466 24.952 554.258 23.944C557.544 22.152 561.109 21.256 564.954 21.256ZM553.698 52.616C554.669 54.2587 555.976 55.5467 557.618 56.48C559.261 57.376 561.146 57.824 563.274 57.824C565.44 57.824 567.362 57.2827 569.042 56.2C570.722 55.1173 572.029 53.6987 572.962 51.944C574.866 48.4347 575.818 44.664 575.818 40.632C575.818 35.6667 574.829 31.672 572.85 28.648C570.648 25.2507 567.008 23.552 561.93 23.552C558.309 24.8213 555.565 27.0053 553.698 30.104C551.832 33.2027 550.898 36.712 550.898 40.632C550.898 45.4107 551.832 49.4053 553.698 52.616ZM627.373 21.928H630.173L616.285 59.84H615.389L606.821 36.88L598.421 59.84H597.525L583.357 21.928H589.461L599.317 52.28L605.589 33.576L601.221 21.928H607.325L617.181 52.28L627.373 21.928ZM653.549 38.504H665.422V40.632H653.549V59H648.117V21.928H670.014V25.68L659.653 23.944C657.787 23.944 655.752 24.2613 653.549 24.896V38.504ZM664.18 59L680.812 21.032H681.652L698.284 59H692.18L687.98 48.92H671.348L667.204 59H664.18ZM672.188 46.792H687.084L679.692 28.648L672.188 46.792ZM708.527 41.304V59H703.039V21.928H715.135C718.906 21.928 721.986 22.768 724.375 24.448C726.802 26.128 728.015 28.3493 728.015 31.112C728.015 33.8373 727.044 36.0027 725.103 37.608C723.199 39.176 720.604 40.2587 717.319 40.856L732.327 59L725.831 59.784L712.839 41.304H708.527ZM708.527 39.624H712.111C718.831 39.624 722.191 36.9733 722.191 31.672C722.191 30.776 721.967 29.768 721.519 28.648C720.66 26.296 718.831 24.7467 716.031 24C713.492 24 710.991 24.3173 708.527 24.952V39.624ZM768.15 59.672C762.363 59.672 757.491 58.104 753.534 54.968C749.577 51.832 747.598 47.3333 747.598 41.472C747.598 38.0373 748.251 34.976 749.558 32.288C750.865 29.6 752.582 27.4907 754.71 25.96C759.003 22.824 763.819 21.256 769.158 21.256C772.257 21.256 775.486 21.816 778.846 22.936L778.286 26.744C776.531 25.9973 775.169 25.4373 774.198 25.064C771.398 24.056 768.579 23.552 765.742 23.552C761.822 24.448 758.798 26.3893 756.67 29.376C754.579 32.3627 753.534 36.096 753.534 40.576C753.534 46.064 754.971 50.3013 757.846 53.288C760.721 56.2373 764.51 57.712 769.214 57.712C773.918 57.712 777.427 56.704 779.742 54.688V57.768C776.531 59.0373 772.667 59.672 768.15 59.672ZM781.133 59L797.765 21.032H798.605L815.237 59H809.133L804.933 48.92H788.301L784.157 59H781.133ZM789.141 46.792H804.037L796.645 28.648L789.141 46.792ZM848.16 59.616H847.208L822.68 28.928H822.456V59H819.992V21.928H824.136L845.472 48.864H845.696V21.928H848.16V59.616ZM910.074 21.928H912.874L898.986 59.84H898.09L889.522 36.88L881.122 59.84H880.226L866.058 21.928H872.162L882.018 52.28L888.29 33.576L883.922 21.928H890.026L899.882 52.28L910.074 21.928ZM917.659 59V21.928H940.115L939.555 25.68L929.139 23.944C927.31 23.944 925.294 24.2613 923.091 24.896V38.504H935.523V40.632H923.091V56.984L940.451 55.248L939.891 59H917.659ZM984.888 43.04H990.32V57.768C987.11 59.0373 983.246 59.672 978.728 59.672C973.24 59.672 968.518 58.216 964.56 55.304C962.619 53.848 961.07 51.944 959.912 49.592C958.755 47.2027 958.176 44.5707 958.176 41.696C958.176 38.8213 958.624 36.2453 959.52 33.968C960.416 31.6533 961.574 29.7307 962.992 28.2C964.448 26.6693 966.128 25.3627 968.032 24.28C971.579 22.264 975.48 21.256 979.736 21.256C981.379 21.256 983.152 21.4427 985.056 21.816C986.96 22.1893 988.416 22.5813 989.424 22.992L988.864 26.744C983.824 24.616 979.643 23.552 976.32 23.552C972.55 24.5227 969.563 26.52 967.36 29.544C965.195 32.568 964.112 36.264 964.112 40.632C964.112 46.0827 965.55 50.3013 968.424 53.288C971.299 56.2373 975.088 57.712 979.792 57.712C981.659 57.712 983.358 57.5253 984.888 57.152V43.04ZM1015.5 21.256C1020.36 21.256 1024.37 22.8613 1027.54 26.072C1030.72 29.2453 1032.3 33.6693 1032.3 39.344C1032.3 43.0027 1031.67 46.2133 1030.4 48.976C1029.13 51.7013 1027.47 53.8107 1025.41 55.304C1021.42 58.216 1017.01 59.672 1012.2 59.672C1007.38 59.672 1003.39 58.0667 1000.21 54.856C997.079 51.608 995.511 47.1467 995.511 41.472C995.511 38.5227 995.922 35.872 996.743 33.52C997.602 31.1307 998.703 29.1893 1000.05 27.696C1001.43 26.2027 1003.01 24.952 1004.81 23.944C1008.09 22.152 1011.66 21.256 1015.5 21.256ZM1004.25 52.616C1005.22 54.2587 1006.52 55.5467 1008.17 56.48C1009.81 57.376 1011.69 57.824 1013.82 57.824C1015.99 57.824 1017.91 57.2827 1019.59 56.2C1021.27 55.1173 1022.58 53.6987 1023.51 51.944C1025.41 48.4347 1026.37 44.664 1026.37 40.632C1026.37 35.6667 1025.38 31.672 1023.4 28.648C1021.2 25.2507 1017.56 23.552 1012.48 23.552C1008.86 24.8213 1006.11 27.0053 1004.25 30.104C1002.38 33.2027 1001.45 36.712 1001.45 40.632C1001.45 45.4107 1002.38 49.4053 1004.25 52.616Z" fill="white"/>
<defs>
<linearGradient id="paint0_linear" x1="720" y1="0" x2="720" y2="79" gradientUnits="userSpaceOnUse">
<stop/>
<stop offset="1" stop-opacity="0"/>
</linearGradient>
</defs>
</svg>
